<svg xmlns="http://www.w3.org/2000/svg" viewBox="0 0 185 185"><path fill="none" d="M0 0h185v185H0z"/><path fill="#ffde37" fill-rule="evenodd" d="M38 29.5l90.3-21.9-11.8 172.1-44.9-11.2z"/><path fill="red" d="M86.7 62.1l.8-1.4.8-.9 1.6-2c.2-.2.6-.5.8-.9l.1-.4.1-1.1.5-1.4c.5-1 1.8-2 2.9-1.7 0 0 .1-.2 0-.1a100.7 100.7 0 0 1-1.6.9l.4-.2.7-.5 1.1-.8 1-.9c.9-.7 1.9-1.5 3-1.7l.5-.1 1-.5.6-.1.9-.1h1.2l.3.3v.5l-1.4 1-1.3.9a204.7 204.7 0 0 1-.3.1l-.2.2-.3.5c0 1.1-1.8 1.3-2.7 1.8H97c-1.5.8 8.4-4.8-.4.3l2.4-1.4-.3.2-.6.5a18.5 18.5 0 0 1-4.9 2.7h-.1l2.4-1.3-.6.5-.1.2v.5l-.3 1.1c0 .3 0 .5-.2.7 0 .4-.4.6-.6.9-1 .8-2 1.5-3.2 1.9H90h-.1l-.5.1-.4.2c-.4.2-.7.4-1 .4h-.4c-1 0-.1 0 2.6-1.7l.2-.1-2.5 1.4.2-.2 1.7-2.6a7.2 7.2 0 0 1 1.6-2l.8-.7 1.7-1.2.8-.6.6-.7.7-1.1c.5-1 1.8-2 3-1.7h2.5c-2.5 2-4.3 2.8-.2.5l-.2.2-.4.3-.6.9-.4.8c0 .6-.4 1-.7 1.5a10 10 0 0 1-2 1.5c-3 1.7-2 1.3-3.4 1.9-.3.2-.7 0-1 .3h-.2c.8-.7 2.3-.9 2.5-1.9.2-1-3.3 1.9-2.5 1.4l2.8-1.6-2.4 1.4 2.8-1.6s.2-.1.2 0c-4.2 2.3-2.9 1.6-2 1l.8-.7.7-.6c.2-.4.2-.9.3-1.3 0-1 .7-1.6 1.5-2.2l3.1-1.9 1-.3.9-.2h.6c.3 0 .3.4.3.6l-.1 1.4c-.5 1.3-2.4 1.9-3.5 2.4a3 3 0 0 1-1 .3h-1c3.6-2.4 2.9-2 2.1-1-.9 1.3-2.6 1.8-4 2.4l-1.4.4h-.6l-.1.2 2.4-1.4c-.4.3-.7.8-1 1.3-.8.9-1.9 1.2-3 1.8 0 0-.1 0 0 0l2.5-1.5-.1.2c0 .5-.2.9-.5 1.3-.3.5-.6 1-1 1.3l-.1.4c-2.6 1.6-1.7 1.5-2.8 1.6h-1.2l-.6.2c-1.7.8 2.8-1.6 2.1-1.3-.1-.3.2 0 .2.1l.3.9v.6c.1 1.2.1.3-2.6 1.7l-.3-.4-.4-1a5 5 0 0 1-.1-1c0-.4.3-.5.5-.7.3-.3.6-.7.7-1.1l.2-1v-.7c.4-1 1.8-1.8 3-1.8 1-.1 0 0-2.6 1.4.2 0 .2-.1.3-.2l.1-.3.2-.6c0-.4.1-.6.4-.8.4-.5.8-.9 1.3-1.2 1-.6 2-1.7 3.2-1.6h2.1c1-.4 2.4-1.2-2.1 1.3v-.1l.2-.2.3-1c.4-1 2.2-2.4 3-1.6v1.7l-.3 1.3c-.2 1.3-2 2-3.2 2l-1.2.1-1 .1 2.3-1.8h1.2l1.1-.2h.3L94.7 55h.2v-.2l.4-1.4v-1-.3c4.7-2.7 3-2.2 2.5-1.3l-.4 1v.1l-.1.2c-.8.5-2 1.7-3.2 1.7H92h-.2s-.1.1 0 0l2.3-1.3-1.4 1c0 .2-.3.4-.4.6v.1l-.1.7v.1l-.1.3c-.6 1-1.5 1.2-3 1.8-.8.6 0 0 2.5-1.4h-.2v.2l-.1.2v.3l-.1 1c-.2.5-.4 1-.7 1.3l-.2.3c-.2 0-.3 0-.4.2v1l.4.9.2.2c-2.9 1.8-2.5 2.5-2.5 1.4v-.6c0-.3-.1-.5-.3-.7l-.4-.5c.3-1.1 2-1.4 3.1-1.8h.3l.3-.2h1.2c.8-.7.2-.2-2.5 1.5h.1l.1-.4 1.1-1.3c.2-.3.5-.7.4-1.2v-.3l2.7-1.6-2.5 1.5.3-.2h.1l1-1.4c3-1.8 1.8-1.5 3.5-1.7.5 0 1-.3 1.4-.5l.6-.2.4-.2c-4.5 2.7-2.9 1.8-2.1 1.2.6-1.2 1.2-1.3 3-2.1h1a3 3 0 0 0 1-.4L99.6 53h.2l.2-.3.1-.2c.2-.4.2-.9.2-1.3V51c0-.1 0 0 0 0h-.6l-1 .3a3 3 0 0 0-.5.2h-.3c3.4-2 2.8-1.6 1.9-1-.7.5-1.4 1-1.6 2l-.1 1.4-.6.6a9 9 0 0 1-.9.8l-.4.3-2.8 1.6c-2.2 1.3 8.7-5-.6.3 6.5-3.7-.3.2-.3.2-.9-.4 1.6-1.2 2.3-1.8l.2-.1c.3 0 .7-.1 1-.3l-1.8 1a9 9 0 0 0 2-1.4c.4-.4.8-.7.8-1.3 0-.3 0-.6.3-.9l.7-.9.5-.6c2.6-1.5 4.8-2.8.5.2h-2.5a27 27 0 0 0 2.4-1.4h-.1l-.8 1.2-.3.4v.3h-.1l-1 .7c-.6.3-1.1.8-1.6 1.2l-.8.6c-.2.2-.3.5-.6.6-.5.4-.8 1-1.1 1.4l-1.6 2.7-.2.2L88 61h-.2-.1l2.4-1.7.3-.1 1-.4c.3-.2.7-.4 1-.4h.5c1.2-.7-3.7 2.3-2 1.1l.7-.7v-.1l.2-.6.2-1v-.5l.1-.4.5-.6c1.1-.8 2.4-1.4 3.6-2h.3l.6-.4c-4 2.4-2.6 1.6-1.8 1l.3-.2.3-.3.3-.2 3.2-1.9h.2c-3.7 2.2-3.4 1.8-2.4 1.5 0-.3 0-.5.2-.7.5-1 2.7-1.8 3-1.9L97.7 52l1.4-1 1.3-.8c.3 0 .2-.1.2-.3 0 .1 0 0-.1 0h-.3-.2-.3a4.4 4.4 0 0 0-1.2.2l-.7.2-.9.4-.3.1h-.2c-1.1.8 3.6-2 2.2-1.2l-1 .8-1.1 1-1 .6-2.8 1.6-.2.2h-.2l-.2.2 2.5-1.5c-.6.3-1.8 1.5-2.9 1.6-.9.5 3.6-2.2 2.3-1.3l-.5 1.3v1.6l-1 1-1.6 2-.2.2c-.1.3-.4.4-.5.6a3 3 0 0 0-.8 1.3l-2.8 1.3zM83.1 63a19 19 0 0 0-.2-4.2v-1l-.4-2-.5-1.5-.4-1.5-.4-2.3c-.1-.8-.2-1.5-.5-2.2l-.5-1-.4-.8-.2-2.5c-.1-.9-.4-1.6-.7-2.3l-.2-.7v-.1.2l-.1-.2-.8-1.9-.5-1a.8.8 0 0 1-.3-.4v-.4-.3a4.8 4.8 0 0 0 0-.6c.4 1.3-3.3 2.6 2.7-1.9v.3l-.1 1.7v1.3c0 .4.2.7.3 1L80 40l.1 2.4a26.7 26.7 0 0 0 .6 3.6v2.1l.5 2.8.1.5.3.4.3.9.4.8.4.7.3.9.4 1.1a12.7 12.7 0 0 0 1.2 2l.7.6h.5l.3.4c0 .2.1.3.3.4.1.2.3.4.5.4h.1l-2.5 2.5h-.2l-.6-.5-.3-.6h-.2c-.2 0-.3-.1-.5-.3l-.7-.6a2 2 0 0 1-.5-.7l-.8-1.4a9 9 0 0 1-.4-1.2l-.3-.8-.4-.7a7 7 0 0 1-.4-.8l-.3-1c-.2-.3 0 .1-.2-.1-.2-.3-.2-.6-.2-.9l-.5-2.8v-1.7-.4l-.1-.9-.4-2.8c-.2-.7-.2-1.5-.2-2.3l-.3-1.2c0-.4-.2-.7-.3-1v-1.4-1.8-.3-.1c1.2-1 2.3-3.4 3-2v1.3l.2.3.5 1.1.7 1.7c.1 0 .3 0 .3.3l.1.6a26.8 26.8 0 0 1 1 4.8c0 .3.2.5.3.8l.5 1c.3.8.4 1.6.5 2.4l.4 2.3.4 1.4.5 1.5c0 .7.3 1.4.4 2v1.1l.2 2V61l-2.7 2z"/><path fill="none" stroke="#007d19" stroke-width=".54231" d="M95.3 154.2s-23-91.8 0-103.3c23-11.4-8.6 13-8.6 13S76.3 15.7 75.9 40.2c-.1 9.3 6.3 16.6 10.8 23.5"/></svg>