<?xml version="1.0" standalone="no"?>
<!DOCTYPE svg PUBLIC "-//W3C//DTD SVG 20010904//EN"
 "http://www.w3.org/TR/2001/REC-SVG-20010904/DTD/svg10.dtd">
<svg version="1.0" xmlns="http://www.w3.org/2000/svg"
 width="700.000000pt" height="700.000000pt" viewBox="0 0 700.000000 700.000000"
 preserveAspectRatio="xMidYMid meet">
<metadata>
Created by potrace 1.11, written by Peter Selinger 2001-2013
</metadata>
<g transform="translate(0.000000,700.000000) scale(0.100000,-0.100000)"
fill="#000000" stroke="none">
<path d="M2895 5727 c-18 -28 -34 -144 -34 -247 0 -104 20 -208 64 -323 20
-55 39 -115 42 -135 9 -53 118 -291 148 -322 14 -14 25 -38 25 -52 l0 -26 41
15 c23 7 42 12 44 11 1 -2 12 -18 25 -37 l23 -33 -22 -137 c-31 -194 -41 -336
-41 -576 0 -449 50 -949 160 -1600 74 -437 208 -1077 230 -1099 16 -16 12 10
-30 191 -128 550 -248 1264 -299 1768 -58 577 -52 1100 15 1397 17 74 36 94
107 117 27 9 37 18 37 34 1 14 21 38 58 67 31 25 105 86 164 137 58 51 126
102 150 114 59 29 86 56 94 93 3 17 13 43 22 57 18 32 10 59 -19 59 -37 0
-171 -51 -265 -102 -94 -50 -221 -152 -239 -191 -5 -12 -17 -33 -26 -47 -9
-14 -20 -41 -23 -60 -3 -20 -14 -47 -24 -60 -23 -33 -42 -88 -31 -92 5 -2 4
-9 -1 -17 -6 -11 -10 -4 -16 24 -4 22 -3 45 3 54 7 12 5 23 -10 42 -13 18 -22
53 -27 106 -5 43 -20 121 -34 173 -14 52 -30 124 -36 159 -6 34 -20 82 -30
105 -10 22 -23 74 -29 115 -7 42 -27 108 -48 155 -20 44 -39 97 -42 116 -6 29
-11 35 -31 34 -14 -1 -31 7 -38 17 -18 26 -38 24 -57 -4z m45 -12 c14 -16 13
-17 -28 -90 l-17 -30 -3 27 c-4 32 15 108 27 108 5 0 14 -7 21 -15z m-26 -255
c18 -81 41 -289 33 -296 -8 -8 -45 118 -57 196 -12 77 -13 191 -2 217 5 14 8
10 10 -17 1 -19 9 -64 16 -100z m333 -802 c-3 -8 -6 -5 -6 6 -1 11 2 17 5 13
3 -3 4 -12 1 -19z"/>
</g>
</svg>
