<?xml version="1.0" standalone="no"?>
<!DOCTYPE svg PUBLIC "-//W3C//DTD SVG 20010904//EN"
 "http://www.w3.org/TR/2001/REC-SVG-20010904/DTD/svg10.dtd">
<svg version="1.0" xmlns="http://www.w3.org/2000/svg"
 width="680.000000pt" height="680.000000pt" viewBox="0 0 680.000000 680.000000"
 preserveAspectRatio="xMidYMid meet">
<metadata>
Created by potrace 1.11, written by Peter Selinger 2001-2013
</metadata>
<g transform="translate(0.000000,680.000000) scale(0.100000,-0.100000)"
fill="#000000" stroke="none">
<path d="M0 4943 l0 -1556 27 38 c79 108 208 218 344 292 54 30 259 114 276
114 2 0 33 9 70 20 38 11 82 22 98 25 17 2 46 9 65 14 19 5 53 11 75 15 23 3
52 8 65 10 22 4 50 8 160 20 14 2 48 6 75 9 117 14 260 19 580 19 355 1 470
-4 630 -28 17 -2 53 -7 80 -10 54 -7 206 -36 250 -49 6 -2 28 -6 50 -11 22 -4
45 -11 50 -15 6 -5 15 -9 20 -9 37 -4 211 -70 284 -109 135 -71 266 -179 341
-280 59 -80 120 -227 136 -327 15 -100 14 -105 -9 -106 -12 0 -197 -1 -412 -2
l-390 -2 -31 43 c-101 140 -320 220 -679 249 -170 14 -656 7 -785 -11 -19 -3
-57 -8 -84 -11 -27 -3 -52 -8 -55 -9 -3 -2 -28 -7 -55 -10 -27 -4 -52 -9 -56
-11 -4 -2 -17 -6 -31 -9 -39 -8 -141 -45 -155 -57 -8 -6 -14 -8 -14 -5 0 17
-126 -81 -153 -120 -69 -96 -81 -223 -32 -337 31 -75 142 -163 255 -204 37
-13 152 -44 185 -49 11 -2 47 -8 80 -13 235 -41 763 -48 1035 -15 84 10 240
44 289 64 27 10 51 17 53 14 3 -2 11 2 18 11 7 8 16 15 21 15 29 0 124 79 166
136 l21 29 411 1 c282 0 411 -3 412 -10 1 -6 1 -15 0 -19 -1 -4 -3 -27 -6 -50
-16 -134 -73 -268 -160 -376 -100 -123 -294 -246 -495 -314 -85 -29 -255 -73
-314 -82 -21 -3 -41 -7 -45 -9 -3 -2 -31 -7 -61 -11 -30 -4 -66 -8 -80 -10
-37 -5 -140 -16 -180 -20 -91 -9 -382 -19 -530 -18 -169 1 -474 11 -507 17
-10 2 -54 7 -98 11 -101 9 -143 14 -177 21 -15 3 -42 7 -60 9 -36 4 -79 12
-118 21 -33 8 -59 13 -94 20 -16 2 -32 7 -36 9 -3 2 -18 6 -32 9 -56 10 -219
71 -310 116 -147 74 -255 160 -341 274 l-37 49 0 -1032 0 -1031 3400 0 3400 0
0 785 c0 621 -3 785 -12 786 -7 0 -143 1 -303 2 l-290 2 -1 325 c-1 386 -10
445 -81 529 -97 116 -271 164 -588 163 -175 -1 -247 -9 -380 -42 -138 -35
-195 -54 -265 -88 l-55 -27 0 -431 1 -431 -383 0 -383 0 1 31 c0 17 0 474 -1
1016 0 542 0 1024 0 1073 l0 87 383 0 383 0 -1 -547 c-1 -302 1 -551 3 -555 2
-5 19 13 39 38 69 91 185 192 301 262 130 79 318 150 470 178 12 2 34 6 50 9
138 25 473 25 586 0 12 -3 32 -7 46 -9 165 -26 359 -119 457 -218 l23 -23 0
1648 0 1647 -3400 0 -3400 0 0 -1557z"/>
</g>
</svg>
