<?xml version="1.0" standalone="no"?>
<!DOCTYPE svg PUBLIC "-//W3C//DTD SVG 20010904//EN"
 "http://www.w3.org/TR/2001/REC-SVG-20010904/DTD/svg10.dtd">
<svg version="1.0" xmlns="http://www.w3.org/2000/svg"
 width="820.000000pt" height="820.000000pt" viewBox="0 0 820.000000 820.000000"
 preserveAspectRatio="xMidYMid meet">
<metadata>
Created by potrace 1.11, written by Peter Selinger 2001-2013
</metadata>
<g transform="translate(0.000000,820.000000) scale(0.100000,-0.100000)"
fill="#000000" stroke="none">
<path d="M2305 7240 c-11 -5 -239 -230 -507 -502 -268 -271 -646 -654 -841
-851 l-354 -357 -2 -48 c-1 -26 -2 -54 -2 -62 1 -8 1 -28 0 -45 -1 -70 -1 -81
1 -105 1 -14 1 -51 1 -82 0 -32 0 -66 0 -75 0 -99 0 -810 0 -818 1 -15 -1 -96
-2 -125 0 -14 -1 -38 0 -55 0 -16 0 -50 0 -75 0 -25 0 -52 0 -60 1 -8 1 -28 0
-45 0 -16 0 -43 0 -60 0 -16 0 -50 0 -75 0 -25 0 -52 0 -60 1 -8 1 -28 0 -45
0 -16 0 -43 0 -60 0 -16 0 -50 0 -75 0 -25 0 -52 0 -60 1 -8 1 -28 0 -45 -1
-70 -1 -81 1 -105 1 -21 1 -84 1 -157 -1 -58 -2 -375 -1 -411 l0 -43 889 -890
889 -890 98 0 c115 0 130 1 147 2 13 1 285 0 331 -1 17 0 32 -3 34 -5 3 -2 13
0 23 5 11 6 20 6 24 1 3 -6 17 -6 34 -1 16 4 31 6 33 4 5 -4 40 -5 158 -4 52
0 100 0 105 -1 6 -1 14 -1 18 0 5 1 77 1 160 1 153 -1 176 -1 200 1 11 1 110
0 171 -1 17 0 32 -3 34 -5 3 -2 13 0 23 5 11 6 20 6 24 1 3 -6 17 -6 34 -1 16
4 31 6 33 4 5 -4 28 -5 153 -5 50 0 95 0 100 -1 6 0 48 0 95 1 119 1 119 1
133 2 13 1 285 0 331 -1 17 0 32 -3 34 -5 3 -2 13 0 23 5 11 6 20 6 24 1 3 -5
18 -6 33 -2 15 4 41 4 57 1 17 -4 38 -3 47 2 9 4 19 4 23 -1 3 -5 18 -6 33 -2
15 4 41 4 57 1 17 -4 38 -3 47 2 9 4 19 4 23 -1 3 -6 17 -6 34 -1 16 4 31 6
33 4 5 -4 28 -5 153 -5 50 0 95 0 100 -1 6 0 48 0 95 1 47 0 94 1 105 0 197
-1 295 2 296 8 0 4 3 346 5 758 3 413 6 775 7 805 l2 55 748 -1 c523 0 747 3
748 10 0 15 -1 568 -2 631 0 28 0 55 1 60 2 14 2 129 0 135 -1 3 -2 9 -1 13 2
10 2 205 1 272 -1 28 -1 55 0 60 2 14 2 129 0 135 -1 3 -2 9 -1 13 2 10 2 205
1 272 -1 28 -1 55 0 60 2 14 2 129 0 135 -1 3 -2 9 -1 13 2 10 2 205 1 272 -1
28 -1 55 0 60 2 14 2 129 0 135 -1 3 -2 9 -1 13 2 10 2 205 1 272 -1 28 -1 55
0 60 2 14 2 129 0 135 -1 3 -2 9 -1 13 1 8 2 211 0 237 0 8 0 44 1 80 0 36 0
88 0 115 -1 28 -1 55 0 60 2 14 2 129 0 135 -1 3 -2 9 -1 13 2 10 2 205 1 272
-1 28 -1 55 0 60 2 14 2 129 0 135 -1 3 -2 9 -1 13 2 10 2 205 1 272 -1 28 -1
55 0 60 2 14 2 129 0 135 -1 3 -2 9 -1 13 1 9 1 216 0 259 -1 24 -6 27 -38 30
-20 2 -55 0 -78 -3 -24 -3 -43 -3 -43 1 0 4 -19 4 -42 1 -24 -4 -60 -4 -81 0
-21 3 -40 3 -42 -1 -3 -4 -22 -4 -42 -1 -21 4 -54 4 -73 1 -19 -3 -46 -3 -60
1 -14 3 -34 3 -45 -1 -11 -4 -34 -4 -51 0 -18 4 -37 4 -44 0 -6 -4 -26 -4 -43
-1 -18 4 -51 4 -74 1 -24 -4 -43 -4 -43 0 0 4 -19 4 -42 1 -24 -4 -60 -4 -81
0 -21 3 -40 3 -42 -1 -3 -4 -22 -4 -42 -1 -21 4 -54 4 -73 1 -19 -3 -46 -3
-60 0 -14 4 -36 4 -50 0 -14 -3 -40 -3 -57 1 -18 4 -33 3 -33 -1 0 -4 -18 -4
-40 0 -22 4 -40 4 -40 0 0 -4 -18 -4 -40 0 -22 4 -42 4 -45 0 -3 -4 -23 -4
-45 0 -22 4 -43 4 -45 0 -3 -4 -20 -4 -39 0 -19 4 -37 5 -40 2 -3 -2 -32 -4
-63 -3 -134 3 -213 2 -222 -3 -5 -4 -12 -2 -15 3 -3 5 -21 5 -41 1 -19 -4 -37
-4 -40 0 -3 4 -21 4 -40 0 -19 -4 -37 -4 -40 1 -3 4 -11 6 -18 4 -24 -9 -82
-11 -109 -4 -15 4 -30 4 -33 0 -2 -5 -23 -5 -45 -1 -22 4 -40 4 -40 0 0 -4
-20 -4 -45 0 -25 4 -45 4 -45 1 0 -3 -24 -5 -52 -4 -29 1 -64 2 -78 2 -14 0
-41 1 -60 2 -19 0 -41 1 -47 0 -27 -2 -40 -2 -119 0 -45 1 -86 -1 -92 -5 -6
-3 -13 -2 -16 3 -3 5 -21 5 -41 1 -19 -4 -37 -4 -40 0 -3 4 -21 4 -40 0 -19
-4 -37 -4 -40 0 -3 4 -20 5 -37 1 -33 -7 -92 -5 -115 4 -7 2 -13 1 -13 -4 0
-5 -18 -5 -40 -1 -22 4 -40 4 -40 0 0 -4 -18 -4 -40 0 -22 4 -42 4 -45 0 -3
-4 -23 -4 -45 0 -22 4 -43 4 -45 0 -3 -4 -20 -4 -39 0 -19 4 -37 5 -40 2 -3
-3 -34 -4 -68 -3 -35 1 -67 2 -73 2 -5 0 -37 0 -70 0 -56 0 -68 0 -112 -1 -10
-1 -42 0 -71 0 -29 0 -57 -2 -62 -5 -6 -3 -10 -2 -10 3 0 5 -19 6 -42 3 -24
-4 -60 -4 -81 0 -21 3 -40 3 -42 -1 -3 -4 -22 -4 -42 -1 -21 4 -54 4 -73 1
-19 -3 -46 -3 -60 1 -14 3 -34 3 -45 -1 -11 -4 -34 -4 -51 0 -18 4 -37 4 -44
0 -6 -4 -26 -4 -43 -1 -18 4 -51 4 -74 1 -24 -4 -43 -4 -43 0 0 4 -19 4 -42 1
-24 -4 -60 -4 -81 0 -21 3 -40 3 -42 -1 -3 -4 -22 -4 -42 -1 -21 4 -54 4 -73
1 -19 -3 -46 -3 -60 0 -14 4 -36 4 -50 0 -14 -3 -38 -3 -55 0 -16 3 -45 3 -63
-1 -17 -4 -34 -3 -37 1 -3 4 -20 4 -39 0 -19 -4 -38 -4 -43 0 -4 4 -17 4 -28
0z m3135 -1904 c41 -4 86 -8 100 -11 71 -14 91 -18 155 -37 39 -12 74 -25 79
-30 6 -4 16 -8 23 -8 17 0 146 -61 154 -73 3 -5 8 -7 10 -6 11 9 144 -93 209
-160 138 -142 211 -303 224 -494 2 -28 -3 -44 -20 -62 l-23 -25 -264 0 c-261
0 -264 0 -284 23 -11 12 -24 33 -28 47 -4 14 -23 55 -42 93 -71 138 -204 209
-398 211 -232 4 -386 -97 -439 -287 -9 -32 -14 -62 -11 -67 3 -5 1 -11 -3 -14
-24 -15 -21 -585 4 -711 8 -42 10 -47 22 -78 7 -16 12 -35 12 -43 0 -8 4 -14
9 -14 5 0 12 -8 16 -19 10 -33 88 -101 150 -132 69 -33 115 -42 240 -43 100
-1 209 27 273 70 19 13 39 24 45 24 6 0 8 2 5 5 -3 3 11 23 31 44 20 22 49 72
65 113 50 125 26 117 330 117 201 1 265 -2 278 -12 20 -16 39 -61 33 -79 -2
-7 -6 -37 -10 -67 -20 -190 -146 -388 -335 -528 -53 -40 -204 -123 -245 -136
-11 -3 -47 -15 -80 -27 -32 -11 -68 -22 -80 -24 -11 -2 -31 -7 -45 -10 -136
-31 -364 -36 -505 -11 -183 33 -300 79 -449 177 -75 51 -172 147 -229 231 -35
51 -99 167 -102 187 -1 3 -7 25 -14 50 -7 25 -14 50 -16 55 -1 6 -4 15 -5 20
-26 90 -35 220 -34 525 1 334 5 380 48 550 14 53 63 155 112 231 39 60 148
180 199 219 96 73 284 161 395 185 3 1 19 4 35 8 64 14 93 18 195 24 58 3 107
7 108 9 2 1 9 1 15 -1 7 -2 46 -6 87 -9z m-2345 -10 c17 -3 41 -8 55 -11 14
-3 36 -8 50 -11 50 -10 177 -56 248 -90 146 -69 282 -181 368 -301 24 -34 44
-66 44 -71 0 -5 7 -15 15 -22 9 -7 13 -15 11 -18 -3 -3 1 -17 9 -31 24 -43 45
-120 55 -194 10 -85 7 -107 -21 -130 -20 -16 -47 -17 -277 -17 -153 1 -263 5
-275 11 -10 6 -30 36 -43 67 -14 32 -35 77 -47 101 -24 48 -121 141 -148 141
-10 0 -21 4 -24 10 -5 8 -35 18 -110 37 -42 11 -214 6 -261 -7 -171 -46 -273
-159 -300 -332 -13 -84 -14 -106 -14 -348 -1 -236 3 -317 15 -370 3 -14 7 -34
9 -45 21 -109 112 -218 221 -265 96 -41 281 -44 410 -7 30 8 124 69 153 98 31
32 95 150 95 177 0 8 12 26 27 42 l27 29 262 1 261 1 24 -26 c20 -21 23 -34
20 -73 -3 -39 -14 -112 -19 -132 -1 -3 -5 -18 -10 -35 -13 -49 -67 -165 -76
-165 -5 0 -9 -5 -9 -10 0 -17 -73 -112 -123 -159 -58 -55 -159 -131 -174 -131
-7 0 -13 -4 -13 -8 0 -17 -251 -123 -325 -138 -43 -8 -132 -23 -175 -29 -62
-7 -335 -4 -335 5 0 1 -16 3 -35 5 -259 31 -549 205 -685 411 -71 108 -134
269 -151 384 -24 169 -24 749 1 870 3 14 8 36 11 50 3 14 8 37 11 53 3 15 9
30 14 33 5 3 9 13 9 23 0 31 76 174 130 247 84 112 186 198 315 266 43 23 148
66 180 75 18 4 100 25 120 29 11 3 43 8 70 11 28 3 52 7 54 9 6 6 318 -3 356
-10z"/>
</g>
</svg>
